<?xml version="1.0" standalone="no"?>
<!DOCTYPE svg PUBLIC "-//W3C//DTD SVG 20010904//EN"
 "http://www.w3.org/TR/2001/REC-SVG-20010904/DTD/svg10.dtd">
<svg version="1.0" xmlns="http://www.w3.org/2000/svg"
 width="260.000000pt" height="260.000000pt" viewBox="0 0 260.000000 260.000000"
 preserveAspectRatio="xMidYMid meet">
<metadata>
Created by potrace 1.11, written by Peter Selinger 2001-2013
</metadata>
<g transform="translate(0.000000,260.000000) scale(0.100000,-0.100000)"
fill="#000000" stroke="none">
<path d="M0 1300 l0 -1300 1300 0 1300 0 0 1300 0 1300 -1300 0 -1300 0 0
-1300z m1379 718 c41 -233 77 -426 80 -429 3 -4 94 56 201 132 187 133 200
142 200 137 0 -2 -63 -91 -139 -198 -76 -107 -136 -198 -132 -201 3 -3 196
-39 429 -80 232 -40 422 -76 422 -79 0 -3 -190 -39 -422 -79 -233 -41 -426
-77 -430 -80 -3 -3 59 -98 138 -211 79 -113 144 -206 144 -208 0 -5 -19 8
-207 140 -100 71 -189 131 -196 134 -14 5 -19 -20 -119 -593 -23 -134 -45
-243 -48 -243 -3 0 -39 190 -79 423 -41 232 -75 424 -77 426 -1 2 -92 -59
-201 -136 -109 -76 -204 -143 -212 -147 -19 -12 -22 -17 142 217 77 109 138
200 136 201 -2 2 -194 36 -426 77 -233 40 -423 76 -423 79 0 3 109 25 243 48
573 100 598 105 593 119 -3 7 -63 96 -134 196 -132 188 -145 207 -140 207 2 0
95 -65 208 -144 113 -79 208 -141 211 -138 3 4 39 197 80 430 40 232 76 422
79 422 3 0 39 -190 79 -422z"/>
</g>
</svg>
